# xmcd
#
# Track frame offsets:
#	150
#	14288
#	31138
#	46513
#	59488
#	74413
#	86113
#	112400
#	124988
#	148888
#
# Disc length: 2159
#
# Revision: 4
# Processed by: cddbd v1.5.1PL0 Copyright (c) Steve Scherf et al.
# Submitted via: audiograbber 1.81.03
# Normalized: r2:DSETVAR1,TSWAP
#
DISCID=93086d0a
DTITLE=Various Artist - Blues Favorites
DYEAR=1900
DGENRE=Blues
TTITLE0=Koko Tylor - I Got What It Takes
TTITLE1=Buddy Guy - Buddy's Groove
TTITLE2=Little Milton - Blind Man
TTITLE3=T-Bone Walker - Confusion Blues
TTITLE4=Elmore James - Whose Muddy Shoes
TTITLE5=Bobby Bland - Two Steps from the Blues
TTITLE6=B.B. King - Let Me Make You Cry a Little Longer
TTITLE7=Muddy Waters - Can't Get No Grindin' (What's the Matter with the Mean)
TTITLE8=John Lee Hooker - I Put my Trust in You
TTITLE9=Howlin' Wolf - Worried About my Baby
EXTD=
EXTT0=
EXTT1=
EXTT2=
EXTT3=
EXTT4=
EXTT5=
EXTT6=
EXTT7=
EXTT8=
EXTT9=
PLAYORDER=
